<mxfile host="app.diagrams.net" agent="Mozilla/5.0 (Windows NT 10.0; Win64; x64) AppleWebKit/537.36 (KHTML, like Gecko) Chrome/135.0.0.0 Safari/537.36" version="26.2.13">
  <diagram name="Page-1" id="lRKMSKcynZLOtO5UF5k7">
    <mxGraphModel dx="1428" dy="863" grid="1" gridSize="10" guides="1" tooltips="1" connect="1" arrows="1" fold="1" page="1" pageScale="1" pageWidth="827" pageHeight="1169" math="0" shadow="0">
      <root>
        <mxCell id="0" />
        <mxCell id="1" parent="0" />
        <mxCell id="q5fqKoRlzlhvviDeyAt6-1" value=":Panel" style="shape=umlLifeline;perimeter=lifelinePerimeter;whiteSpace=wrap;html=1;container=1;dropTarget=0;collapsible=0;recursiveResize=0;outlineConnect=0;portConstraint=eastwest;newEdgeStyle={&quot;curved&quot;:0,&quot;rounded&quot;:0};" vertex="1" parent="1">
          <mxGeometry x="40" y="40" width="100" height="640" as="geometry" />
        </mxCell>
        <mxCell id="q5fqKoRlzlhvviDeyAt6-9" value="" style="html=1;points=[[0,0,0,0,5],[0,1,0,0,-5],[1,0,0,0,5],[1,1,0,0,-5]];perimeter=orthogonalPerimeter;outlineConnect=0;targetShapes=umlLifeline;portConstraint=eastwest;newEdgeStyle={&quot;curved&quot;:0,&quot;rounded&quot;:0};" vertex="1" parent="q5fqKoRlzlhvviDeyAt6-1">
          <mxGeometry x="45" y="60" width="10" height="80" as="geometry" />
        </mxCell>
        <mxCell id="q5fqKoRlzlhvviDeyAt6-2" value=":Eucalyptus" style="shape=umlLifeline;perimeter=lifelinePerimeter;whiteSpace=wrap;html=1;container=1;dropTarget=0;collapsible=0;recursiveResize=0;outlineConnect=0;portConstraint=eastwest;newEdgeStyle={&quot;curved&quot;:0,&quot;rounded&quot;:0};" vertex="1" parent="1">
          <mxGeometry x="200" y="40" width="100" height="640" as="geometry" />
        </mxCell>
        <mxCell id="q5fqKoRlzlhvviDeyAt6-10" value="" style="html=1;points=[[0,0,0,0,5],[0,1,0,0,-5],[1,0,0,0,5],[1,1,0,0,-5]];perimeter=orthogonalPerimeter;outlineConnect=0;targetShapes=umlLifeline;portConstraint=eastwest;newEdgeStyle={&quot;curved&quot;:0,&quot;rounded&quot;:0};" vertex="1" parent="q5fqKoRlzlhvviDeyAt6-2">
          <mxGeometry x="45" y="80" width="10" height="540" as="geometry" />
        </mxCell>
        <mxCell id="q5fqKoRlzlhvviDeyAt6-3" value=":Evergreen" style="shape=umlLifeline;perimeter=lifelinePerimeter;whiteSpace=wrap;html=1;container=1;dropTarget=0;collapsible=0;recursiveResize=0;outlineConnect=0;portConstraint=eastwest;newEdgeStyle={&quot;curved&quot;:0,&quot;rounded&quot;:0};" vertex="1" parent="1">
          <mxGeometry x="360" y="40" width="100" height="640" as="geometry" />
        </mxCell>
        <mxCell id="q5fqKoRlzlhvviDeyAt6-15" value="" style="html=1;points=[[0,0,0,0,5],[0,1,0,0,-5],[1,0,0,0,5],[1,1,0,0,-5]];perimeter=orthogonalPerimeter;outlineConnect=0;targetShapes=umlLifeline;portConstraint=eastwest;newEdgeStyle={&quot;curved&quot;:0,&quot;rounded&quot;:0};" vertex="1" parent="q5fqKoRlzlhvviDeyAt6-3">
          <mxGeometry x="44" y="120" width="10" height="190" as="geometry" />
        </mxCell>
        <mxCell id="q5fqKoRlzlhvviDeyAt6-29" value="" style="html=1;points=[[0,0,0,0,5],[0,1,0,0,-5],[1,0,0,0,5],[1,1,0,0,-5]];perimeter=orthogonalPerimeter;outlineConnect=0;targetShapes=umlLifeline;portConstraint=eastwest;newEdgeStyle={&quot;curved&quot;:0,&quot;rounded&quot;:0};" vertex="1" parent="q5fqKoRlzlhvviDeyAt6-3">
          <mxGeometry x="44" y="450" width="10" height="160" as="geometry" />
        </mxCell>
        <mxCell id="q5fqKoRlzlhvviDeyAt6-4" value=":Essence" style="shape=umlLifeline;perimeter=lifelinePerimeter;whiteSpace=wrap;html=1;container=1;dropTarget=0;collapsible=0;recursiveResize=0;outlineConnect=0;portConstraint=eastwest;newEdgeStyle={&quot;curved&quot;:0,&quot;rounded&quot;:0};" vertex="1" parent="1">
          <mxGeometry x="680" y="40" width="100" height="640" as="geometry" />
        </mxCell>
        <mxCell id="q5fqKoRlzlhvviDeyAt6-18" value="" style="html=1;points=[[0,0,0,0,5],[0,1,0,0,-5],[1,0,0,0,5],[1,1,0,0,-5]];perimeter=orthogonalPerimeter;outlineConnect=0;targetShapes=umlLifeline;portConstraint=eastwest;newEdgeStyle={&quot;curved&quot;:0,&quot;rounded&quot;:0};" vertex="1" parent="q5fqKoRlzlhvviDeyAt6-4">
          <mxGeometry x="45" y="330" width="10" height="100" as="geometry" />
        </mxCell>
        <mxCell id="q5fqKoRlzlhvviDeyAt6-5" value="message" style="html=1;verticalAlign=bottom;startArrow=oval;startFill=1;endArrow=block;startSize=8;curved=0;rounded=0;" edge="1" parent="1" target="q5fqKoRlzlhvviDeyAt6-2">
          <mxGeometry width="60" relative="1" as="geometry">
            <mxPoint x="90" y="140" as="sourcePoint" />
            <mxPoint x="150" y="140" as="targetPoint" />
          </mxGeometry>
        </mxCell>
        <mxCell id="q5fqKoRlzlhvviDeyAt6-7" value="send processed info" style="html=1;verticalAlign=bottom;endArrow=block;curved=0;rounded=0;" edge="1" parent="1" target="q5fqKoRlzlhvviDeyAt6-3">
          <mxGeometry width="80" relative="1" as="geometry">
            <mxPoint x="250" y="180" as="sourcePoint" />
            <mxPoint x="330" y="180" as="targetPoint" />
          </mxGeometry>
        </mxCell>
        <mxCell id="q5fqKoRlzlhvviDeyAt6-11" value="return 200" style="html=1;verticalAlign=bottom;endArrow=open;dashed=1;endSize=8;curved=0;rounded=0;" edge="1" parent="1">
          <mxGeometry relative="1" as="geometry">
            <mxPoint x="410" y="330" as="sourcePoint" />
            <mxPoint x="249.5" y="330" as="targetPoint" />
          </mxGeometry>
        </mxCell>
        <mxCell id="q5fqKoRlzlhvviDeyAt6-12" value=":Sequoia" style="shape=umlLifeline;perimeter=lifelinePerimeter;whiteSpace=wrap;html=1;container=1;dropTarget=0;collapsible=0;recursiveResize=0;outlineConnect=0;portConstraint=eastwest;newEdgeStyle={&quot;curved&quot;:0,&quot;rounded&quot;:0};" vertex="1" parent="1">
          <mxGeometry x="520" y="40" width="100" height="640" as="geometry" />
        </mxCell>
        <mxCell id="q5fqKoRlzlhvviDeyAt6-16" value="" style="html=1;points=[[0,0,0,0,5],[0,1,0,0,-5],[1,0,0,0,5],[1,1,0,0,-5]];perimeter=orthogonalPerimeter;outlineConnect=0;targetShapes=umlLifeline;portConstraint=eastwest;newEdgeStyle={&quot;curved&quot;:0,&quot;rounded&quot;:0};" vertex="1" parent="q5fqKoRlzlhvviDeyAt6-12">
          <mxGeometry x="45" y="130" width="10" height="120" as="geometry" />
        </mxCell>
        <mxCell id="q5fqKoRlzlhvviDeyAt6-13" value="writes to&amp;nbsp;" style="html=1;verticalAlign=bottom;endArrow=block;curved=0;rounded=0;" edge="1" parent="1">
          <mxGeometry width="80" relative="1" as="geometry">
            <mxPoint x="414" y="200" as="sourcePoint" />
            <mxPoint x="574" y="200" as="targetPoint" />
          </mxGeometry>
        </mxCell>
        <mxCell id="q5fqKoRlzlhvviDeyAt6-14" value="return 200" style="html=1;verticalAlign=bottom;endArrow=open;dashed=1;endSize=8;curved=0;rounded=0;" edge="1" parent="1">
          <mxGeometry relative="1" as="geometry">
            <mxPoint x="570" y="270" as="sourcePoint" />
            <mxPoint x="410" y="270" as="targetPoint" />
          </mxGeometry>
        </mxCell>
        <mxCell id="q5fqKoRlzlhvviDeyAt6-19" value="" style="html=1;verticalAlign=bottom;endArrow=block;curved=0;rounded=0;" edge="1" parent="1" target="q5fqKoRlzlhvviDeyAt6-18">
          <mxGeometry x="0.5023" width="80" relative="1" as="geometry">
            <mxPoint x="250" y="400" as="sourcePoint" />
            <mxPoint x="730" y="400" as="targetPoint" />
            <mxPoint as="offset" />
          </mxGeometry>
        </mxCell>
        <mxCell id="q5fqKoRlzlhvviDeyAt6-20" value="send raw received info" style="edgeLabel;html=1;align=center;verticalAlign=middle;resizable=0;points=[];" vertex="1" connectable="0" parent="q5fqKoRlzlhvviDeyAt6-19">
          <mxGeometry x="0.7011" y="-3" relative="1" as="geometry">
            <mxPoint y="-13" as="offset" />
          </mxGeometry>
        </mxCell>
        <mxCell id="q5fqKoRlzlhvviDeyAt6-22" value="EHCP response" style="html=1;verticalAlign=bottom;endArrow=open;dashed=1;endSize=8;curved=0;rounded=0;" edge="1" parent="1" target="q5fqKoRlzlhvviDeyAt6-2">
          <mxGeometry relative="1" as="geometry">
            <mxPoint x="730" y="450" as="sourcePoint" />
            <mxPoint x="650" y="450" as="targetPoint" />
          </mxGeometry>
        </mxCell>
        <mxCell id="q5fqKoRlzlhvviDeyAt6-23" value="EHCP response" style="html=1;verticalAlign=bottom;endArrow=block;curved=0;rounded=0;" edge="1" parent="1">
          <mxGeometry width="80" relative="1" as="geometry">
            <mxPoint x="253.5" y="510" as="sourcePoint" />
            <mxPoint x="413.5" y="510" as="targetPoint" />
          </mxGeometry>
        </mxCell>
        <mxCell id="q5fqKoRlzlhvviDeyAt6-25" value="return 200" style="html=1;verticalAlign=bottom;endArrow=open;dashed=1;endSize=8;curved=0;rounded=0;" edge="1" parent="1" source="q5fqKoRlzlhvviDeyAt6-27">
          <mxGeometry relative="1" as="geometry">
            <mxPoint x="573.5" y="600" as="sourcePoint" />
            <mxPoint x="413.5" y="600" as="targetPoint" />
          </mxGeometry>
        </mxCell>
        <mxCell id="q5fqKoRlzlhvviDeyAt6-26" value="return 200" style="html=1;verticalAlign=bottom;endArrow=open;dashed=1;endSize=8;curved=0;rounded=0;" edge="1" parent="1">
          <mxGeometry relative="1" as="geometry">
            <mxPoint x="414" y="640" as="sourcePoint" />
            <mxPoint x="254" y="640" as="targetPoint" />
          </mxGeometry>
        </mxCell>
        <mxCell id="q5fqKoRlzlhvviDeyAt6-28" value="" style="html=1;verticalAlign=bottom;endArrow=open;dashed=1;endSize=8;curved=0;rounded=0;" edge="1" parent="1" target="q5fqKoRlzlhvviDeyAt6-27">
          <mxGeometry relative="1" as="geometry">
            <mxPoint x="573.5" y="600" as="sourcePoint" />
            <mxPoint x="413.5" y="600" as="targetPoint" />
          </mxGeometry>
        </mxCell>
        <mxCell id="q5fqKoRlzlhvviDeyAt6-27" value="" style="html=1;points=[[0,0,0,0,5],[0,1,0,0,-5],[1,0,0,0,5],[1,1,0,0,-5]];perimeter=orthogonalPerimeter;outlineConnect=0;targetShapes=umlLifeline;portConstraint=eastwest;newEdgeStyle={&quot;curved&quot;:0,&quot;rounded&quot;:0};" vertex="1" parent="1">
          <mxGeometry x="565" y="510" width="10" height="120" as="geometry" />
        </mxCell>
        <mxCell id="q5fqKoRlzlhvviDeyAt6-24" value="writes to&amp;nbsp;" style="html=1;verticalAlign=bottom;endArrow=block;curved=0;rounded=0;" edge="1" parent="1">
          <mxGeometry width="80" relative="1" as="geometry">
            <mxPoint x="414" y="540" as="sourcePoint" />
            <mxPoint x="574" y="540" as="targetPoint" />
          </mxGeometry>
        </mxCell>
        <mxCell id="q5fqKoRlzlhvviDeyAt6-30" value="If EHCP" style="shape=umlFrame;whiteSpace=wrap;html=1;pointerEvents=0;fillColor=#ffe6cc;strokeColor=#d79b00;labelBackgroundColor=none;fillStyle=solid;" vertex="1" parent="1">
          <mxGeometry x="170" y="420" width="600" height="250" as="geometry" />
        </mxCell>
      </root>
    </mxGraphModel>
  </diagram>
</mxfile>
